<?xml version="1.0" encoding="UTF-8"?>
<svg width="27px" height="29px" viewBox="0 0 27 29" version="1.1" xmlns="http://www.w3.org/2000/svg" xmlns:xlink="http://www.w3.org/1999/xlink">
    <!-- Generator: Sketch 51.3 (57544) - http://www.bohemiancoding.com/sketch -->
    <title>btn_navi_menu_close</title>
    <desc>Created with Sketch.</desc>
    <defs></defs>
    <g id="Page-1" stroke="none" stroke-width="1" fill="none" fill-rule="evenodd">
        <g id="btn_navi_menu_close" fill="#FFFFFF">
            <rect id="pas2" fill-rule="nonzero" transform="translate(13.000000, 9.500000) rotate(-315.000000) translate(-13.000000, -9.500000) " x="2" y="8" width="22" height="3"></rect>
            <rect id="pas1" fill-rule="nonzero" transform="translate(12.838835, 9.500000) rotate(-45.000000) translate(-12.838835, -9.500000) " x="1.83883476" y="8" width="22" height="3"></rect>
            <path d="M5.04090625,27.6054688 C4.54611211,27.8320324 4.15288688,27.973958 3.86121875,28.03125 C3.56955063,28.088542 3.28830344,28.1171875 3.01746875,28.1171875 C2.11642258,28.1171875 1.40679426,27.848961 0.8885625,27.3125 C0.370330742,26.776039 0.11121875,26.0273486 0.11121875,25.0664062 C0.11121875,24.1236932 0.373585918,23.3769559 0.898328125,22.8261719 C1.42307033,22.2753879 2.13074555,22 3.021375,22 C3.71148262,22 4.38465297,22.1653629 5.04090625,22.4960938 L5.04090625,23.703125 L4.9041875,23.703125 C4.29220527,23.1822891 3.71278398,22.921875 3.16590625,22.921875 C2.64246613,22.921875 2.22840777,23.1087221 1.92371875,23.4824219 C1.61902973,23.8561217 1.4666875,24.3854132 1.4666875,25.0703125 C1.4666875,25.7500034 1.62163387,26.2740867 1.93153125,26.6425781 C2.24142863,27.0110696 2.65548699,27.1953125 3.17371875,27.1953125 C3.44455344,27.1953125 3.70887371,27.1477869 3.9666875,27.0527344 C4.22450129,26.9576818 4.54090438,26.7460954 4.91590625,26.4179688 L5.04090625,26.4179688 L5.04090625,27.6054688 Z M10.0760625,28 L5.990125,28 L5.990125,22.1132812 L7.2791875,22.1132812 L7.2791875,27.0234375 L10.0760625,27.0234375 L10.0760625,28 Z M13.2049688,28.125 C12.3091309,28.125 11.6053619,27.8522163 11.0936406,27.3066406 C10.5819193,26.761065 10.3260625,26.0130256 10.3260625,25.0625 C10.3260625,24.1067661 10.5806172,23.3561225 11.0897344,22.8105469 C11.5988515,22.2649712 12.3039226,21.9921875 13.2049688,21.9921875 C14.1034107,21.9921875 14.8084818,22.2656223 15.3202031,22.8125 C15.8319244,23.3593777 16.0877813,24.1093702 16.0877813,25.0625 C16.0877813,26.0078172 15.8332265,26.7545546 15.3241094,27.3027344 C14.8149922,27.8509142 14.1086191,28.125 13.2049688,28.125 Z M13.208875,22.921875 C12.7427268,22.921875 12.3716368,23.1080711 12.0955938,23.4804688 C11.8195507,23.8528664 11.6815313,24.3802049 11.6815313,25.0625 C11.6815313,25.7421909 11.8195507,26.2675763 12.0955938,26.6386719 C12.3716368,27.0097675 12.7427268,27.1953125 13.208875,27.1953125 C13.672419,27.1953125 14.042207,27.0084654 14.31825,26.6347656 C14.594293,26.2610658 14.7323125,25.7356805 14.7323125,25.0585938 C14.7323125,24.3789029 14.5949441,23.8528664 14.3202031,23.4804688 C14.0454622,23.1080711 13.6750232,22.921875 13.208875,22.921875 Z M16.7830938,27.6484375 L16.7830938,26.4023438 L16.9159063,26.4023438 C17.2075744,26.6419283 17.5428575,26.8320305 17.9217656,26.9726562 C18.3006738,27.113282 18.6646024,27.1835938 19.0135625,27.1835938 C19.3755435,27.1835938 19.6672072,27.1184902 19.8885625,26.9882812 C20.1099178,26.8580723 20.2205938,26.6770845 20.2205938,26.4453125 C20.2205938,26.2656241 20.1678599,26.1223964 20.0623906,26.015625 C19.9569213,25.9088536 19.7570536,25.8203129 19.4627813,25.75 C19.2518427,25.7109373 18.8918203,25.6341152 18.3827031,25.5195312 C17.873586,25.4049473 17.485569,25.2037775 17.2186406,24.9160156 C16.9517122,24.6282538 16.81825,24.2604189 16.81825,23.8125 C16.81825,23.2786432 17.0461123,22.8444027 17.5018438,22.5097656 C17.9575752,22.1751285 18.5435068,22.0078125 19.2596563,22.0078125 C19.9888266,22.0078125 20.6737155,22.1406237 21.3143438,22.40625 L21.3143438,23.5976562 L21.1854375,23.5976562 C20.6385598,23.1549457 20.0109619,22.9335938 19.302625,22.9335938 C18.9666858,22.9335938 18.6899959,22.9960931 18.4725469,23.1210938 C18.2550979,23.2460944 18.146375,23.4166656 18.146375,23.6328125 C18.146375,23.8177093 18.2082233,23.9648432 18.3319219,24.0742188 C18.4556204,24.1835943 18.6672068,24.2734371 18.9666875,24.34375 C19.2661682,24.3984378 19.6001492,24.4707027 19.9686406,24.5605469 C20.3371321,24.6503911 20.6118689,24.7513015 20.7928594,24.8632812 C20.9738499,24.975261 21.1183797,25.0970046 21.2264531,25.2285156 C21.3345266,25.3600267 21.4152549,25.5065096 21.4686406,25.6679688 C21.5220263,25.8294279 21.5487188,26.0078115 21.5487188,26.203125 C21.5487188,26.7760445 21.3149971,27.2369774 20.8475469,27.5859375 C20.3800966,27.9348976 19.7609622,28.109375 18.990125,28.109375 C18.2401213,28.109375 17.5044515,27.9557307 16.7830938,27.6484375 Z M26.6073125,28 L22.50575,28 L22.50575,22.1132812 L26.6073125,22.1132812 L26.6073125,23.0898438 L23.787,23.0898438 L23.787,24.3476562 L26.4080938,24.3476562 L26.4080938,25.3203125 L23.787,25.3203125 L23.787,27.0234375 L26.6073125,27.0234375 L26.6073125,28 Z" id="CLOSE"></path>
        </g>
    </g>
</svg>