<?xml version="1.0" encoding="UTF-8"?>
<svg width="25px" height="28px" viewBox="0 0 25 28" version="1.1" xmlns="http://www.w3.org/2000/svg" xmlns:xlink="http://www.w3.org/1999/xlink">
    <!-- Generator: Sketch 51.3 (57544) - http://www.bohemiancoding.com/sketch -->
    <title>btn_navi_menu</title>
    <desc>Created with Sketch.</desc>
    <defs>
        <path d="M6.3495,27 L5.0760625,27 L5.0760625,22.8632812 L3.80653125,25.609375 L2.9510625,25.609375 L1.68153125,22.875 L1.68153125,27 L0.48621875,27 L0.48621875,21.1132812 L1.93153125,21.1132812 L3.4198125,24.2421875 L4.9041875,21.1132812 L6.3495,21.1132812 L6.3495,27 Z M11.8495,27 L7.7479375,27 L7.7479375,21.1132812 L11.8495,21.1132812 L11.8495,22.0898438 L9.0291875,22.0898438 L9.0291875,23.3476562 L11.6502813,23.3476562 L11.6502813,24.3203125 L9.0291875,24.3203125 L9.0291875,26.0234375 L11.8495,26.0234375 L11.8495,27 Z M18.052625,27 L16.8104375,27 L14.1698125,22.6835938 L14.1698125,27 L12.9745,27 L12.9745,21.1132812 L14.537,21.1132812 L16.8573125,24.9179688 L16.8573125,21.1132812 L18.052625,21.1132812 L18.052625,27 Z M24.3885625,24.796875 C24.3885625,25.5703164 24.1717678,26.1510397 23.7381719,26.5390625 C23.304576,26.9270853 22.6854415,27.1210938 21.88075,27.1210938 C21.0734543,27.1210938 20.4543199,26.9251322 20.0233281,26.5332031 C19.5923364,26.1412741 19.3768438,25.5625038 19.3768438,24.796875 L19.3768438,21.1132812 L20.6698125,21.1132812 L20.6698125,24.7617188 C20.6698125,25.2513045 20.7700719,25.6054677 20.9705938,25.8242188 C21.1711156,26.0429698 21.474498,26.1523438 21.88075,26.1523438 C22.2974188,26.1523438 22.6040563,26.0436209 22.8006719,25.8261719 C22.9972874,25.6087229 23.0955938,25.2565129 23.0955938,24.7695312 L23.0955938,21.1132812 L24.3885625,21.1132812 L24.3885625,24.796875 Z" id="path-1"></path>
    </defs>
    <g id="Page-1" stroke="none" stroke-width="1" fill="none" fill-rule="evenodd">
        <g id="btn_navi_menu">
            <rect id="pas3" fill="#444444" fill-rule="nonzero" x="1" y="0" width="22" height="3"></rect>
            <rect id="pas2" fill="#444444" fill-rule="nonzero" x="1" y="7" width="22" height="3"></rect>
            <rect id="pas1" fill="#444444" fill-rule="nonzero" x="1" y="14" width="22" height="3"></rect>
            <g id="MENU">
                <use fill="#000000" xlink:href="#path-1"></use>
                <use fill="#444444" xlink:href="#path-1"></use>
            </g>
        </g>
    </g>
</svg>