<svg id="icon_message" xmlns="http://www.w3.org/2000/svg" width="17.249" height="11.455" viewBox="0 0 17.249 11.455">
  <path id="msg2" d="M8.164,11.874,1.132,4.843A.666.666,0,0,0,0,5.317v8.9a.652.652,0,0,0,.658.658H16.591a.652.652,0,0,0,.658-.658v-8.9a.661.661,0,0,0-1.132-.474L9.085,11.874A.636.636,0,0,1,8.164,11.874Z" transform="translate(0 -3.421)" fill="#fff"/>
  <path id="msg1" d="M10.817.974l5.267,5.267a.573.573,0,0,0,.79,0L22.141.974A.581.581,0,0,0,21.719,0H11.212A.567.567,0,0,0,10.817.974Z" transform="translate(-7.841)" fill="#fff"/>
</svg>
