<svg xmlns="http://www.w3.org/2000/svg" width="16" height="14" viewBox="0 0 16 14">
  <g id="icon_btn_update" transform="translate(-1017.695 -1254.5)">
    <path id="パス_205" data-name="パス 205" d="M1040.4,1257.849l-1.435.251a.92.92,0,0,0-.078-.183,6.742,6.742,0,0,0-11.73,0,.915.915,0,0,0,1.592.9,4.909,4.909,0,0,1,8.3-.385l-1.145.2a.441.441,0,0,0-.223.759l2.76,2.536a.441.441,0,0,0,.69-.12l1.737-3.321A.441.441,0,0,0,1040.4,1257.849Z" transform="translate(-7.786)" fill="#fff"/>
    <path id="パス_206" data-name="パス 206" d="M1030.949,1293.132a.916.916,0,0,0-1.248.344,4.909,4.909,0,0,1-8.3.384l.751-.131a.638.638,0,0,0,.322-1.1l-2.276-2.091a.639.639,0,0,0-1,.174l-1.432,2.738a.638.638,0,0,0,.676.924l1.041-.182a.918.918,0,0,0,.078.183,6.743,6.743,0,0,0,11.731,0A.915.915,0,0,0,1030.949,1293.132Z" transform="translate(0 -29.906)" fill="#fff"/>
  </g>
</svg>
