<svg xmlns="http://www.w3.org/2000/svg" width="29.383" height="20.569" viewBox="0 0 29.383 20.569">
  <g id="icon_kouza" transform="translate(0)">
    <path id="パス_297" data-name="パス 297" d="M1335.847,1513a3.135,3.135,0,0,0-3.034,2.365l-3.732,14.927a2.64,2.64,0,0,0,2.564,3.276h19.3a2.947,2.947,0,0,0,2.858-2.226l4.584-18.343Zm16.661,9.55h-18.366l.735-3.673h18.365Z" transform="translate(-1329.003 -1513)" fill="#34a598"/>
    <path id="パス_298" data-name="パス 298" d="M1363.329,1532.113H1357v-1.469h5.227a1.94,1.94,0,0,0,1.94-1.94v-15.656h1.469v16.759A2.307,2.307,0,0,1,1363.329,1532.113Z" transform="translate(-1336.433 -1513.012)" fill="#34a598"/>
  </g>
</svg>
