<svg xmlns="http://www.w3.org/2000/svg" width="17.753" height="17" viewBox="0 0 17.753 17">
  <g id="icon_btn_search_orng" transform="translate(0 0.1)">
    <g id="グループ化_15" data-name="グループ化 15" transform="translate(0 -0.1)">
      <path id="パス_11" data-name="パス 11" d="M17.289,14.053l-2.93-2.93a2.268,2.268,0,0,0-.371-.289,7.128,7.128,0,0,0,.867-3.507A7.449,7.449,0,0,0,7.427-.1a7.448,7.448,0,0,0,0,14.9,7.505,7.505,0,0,0,4.456-1.485c.041.041.083.124.124.165l2.93,2.93a1.644,1.644,0,0,0,2.352,0A1.722,1.722,0,0,0,17.289,14.053ZM12.172,8.606a1.216,1.216,0,0,1-1.238-1.238A3.5,3.5,0,0,0,7.427,3.861,1.216,1.216,0,0,1,6.189,2.623,1.216,1.216,0,0,1,7.427,1.385,5.987,5.987,0,0,1,13.41,7.368,1.216,1.216,0,0,1,12.172,8.606Z" transform="translate(0 0.1)" fill="#f0af3f"/>
    </g>
  </g>
</svg>
