<?xml version="1.0" encoding="UTF-8" standalone="no"?>
<svg
   xmlns:dc="http://purl.org/dc/elements/1.1/"
   xmlns:cc="http://creativecommons.org/ns#"
   xmlns:rdf="http://www.w3.org/1999/02/22-rdf-syntax-ns#"
   xmlns:svg="http://www.w3.org/2000/svg"
   xmlns="http://www.w3.org/2000/svg"
   xmlns:sodipodi="http://sodipodi.sourceforge.net/DTD/sodipodi-0.dtd"
   xmlns:inkscape="http://www.inkscape.org/namespaces/inkscape"
   width="17.63"
   height="17.975"
   viewBox="0 0 17.63 17.975"
   version="1.1"
   id="svg3398"
   sodipodi:docname="icon_setting_wh.svg"
   inkscape:version="0.92.4 (5da689c313, 2019-01-14)">
  <metadata
     id="metadata3404">
    <rdf:RDF>
      <cc:Work
         rdf:about="">
        <dc:format>image/svg+xml</dc:format>
        <dc:type
           rdf:resource="http://purl.org/dc/dcmitype/StillImage" />
        <dc:title></dc:title>
      </cc:Work>
    </rdf:RDF>
  </metadata>
  <defs
     id="defs3402" />
  <sodipodi:namedview
     pagecolor="#ffffff"
     bordercolor="#666666"
     borderopacity="1"
     objecttolerance="10"
     gridtolerance="10"
     guidetolerance="10"
     inkscape:pageopacity="0"
     inkscape:pageshadow="2"
     inkscape:window-width="1920"
     inkscape:window-height="1017"
     id="namedview3400"
     showgrid="false"
     inkscape:zoom="47.176633"
     inkscape:cx="8.8149996"
     inkscape:cy="8.9875002"
     inkscape:window-x="-8"
     inkscape:window-y="-8"
     inkscape:window-maximized="1"
     inkscape:current-layer="svg3398" />
  <path
     id="icon_setting"
     d="M10.61-76.813a8.989,8.989,0,0,0-2.113,0l-.235,1.852a7.19,7.19,0,0,0-1.821.592l-1.279-1.36a8.987,8.987,0,0,0-1.709,1.242l.9,1.637A7.189,7.189,0,0,0,3.226-71.3L1.391-71.65a8.987,8.987,0,0,0-.653,2.009l1.689.8a7.19,7.19,0,0,0,0,1.914l-1.689.8a8.987,8.987,0,0,0,.653,2.009l1.834-.348a7.188,7.188,0,0,0,1.125,1.549l-.9,1.637a8.987,8.987,0,0,0,1.709,1.242l1.279-1.36a7.19,7.19,0,0,0,1.821.592L8.5-58.963a8.988,8.988,0,0,0,2.113,0l.235-1.852a7.19,7.19,0,0,0,1.821-.592l1.279,1.36a8.987,8.987,0,0,0,1.709-1.242l-.9-1.637a7.188,7.188,0,0,0,1.125-1.549l1.834.348a8.987,8.987,0,0,0,.653-2.009l-1.689-.8a7.19,7.19,0,0,0,0-1.914l1.689-.8a8.987,8.987,0,0,0-.653-2.009l-1.834.348a7.189,7.189,0,0,0-1.125-1.549l.9-1.637a8.987,8.987,0,0,0-1.709-1.242l-1.279,1.36a7.19,7.19,0,0,0-1.821-.592ZM9.553-70.584a2.7,2.7,0,0,1,2.7,2.7,2.7,2.7,0,0,1-2.7,2.7,2.7,2.7,0,0,1-2.7-2.7A2.7,2.7,0,0,1,9.553-70.584Z"
     transform="translate(-0.738 76.875)"
     fill="#63595c"
     fill-rule="evenodd"
     style="fill:#ffffff" />
</svg>
