<?xml version="1.0" encoding="UTF-8" standalone="no"?>
<svg
   xmlns:dc="http://purl.org/dc/elements/1.1/"
   xmlns:cc="http://creativecommons.org/ns#"
   xmlns:rdf="http://www.w3.org/1999/02/22-rdf-syntax-ns#"
   xmlns:svg="http://www.w3.org/2000/svg"
   xmlns="http://www.w3.org/2000/svg"
   xmlns:sodipodi="http://sodipodi.sourceforge.net/DTD/sodipodi-0.dtd"
   xmlns:inkscape="http://www.inkscape.org/namespaces/inkscape"
   width="17"
   height="12"
   viewBox="0 0 17 12"
   version="1.1"
   id="svg9345"
   sodipodi:docname="icon_msg_list_mail.svg"
   inkscape:version="0.92.4 (5da689c313, 2019-01-14)">
  <metadata
     id="metadata9351">
    <rdf:RDF>
      <cc:Work
         rdf:about="">
        <dc:format>image/svg+xml</dc:format>
        <dc:type
           rdf:resource="http://purl.org/dc/dcmitype/StillImage" />
      </cc:Work>
    </rdf:RDF>
  </metadata>
  <defs
     id="defs9349" />
  <sodipodi:namedview
     pagecolor="#ffffff"
     bordercolor="#666666"
     borderopacity="1"
     objecttolerance="10"
     gridtolerance="10"
     guidetolerance="10"
     inkscape:pageopacity="0"
     inkscape:pageshadow="2"
     inkscape:window-width="1920"
     inkscape:window-height="1017"
     id="namedview9347"
     showgrid="false"
     inkscape:zoom="66.682292"
     inkscape:cx="8.5"
     inkscape:cy="6"
     inkscape:window-x="-8"
     inkscape:window-y="-8"
     inkscape:window-maximized="1"
     inkscape:current-layer="icon_msg_list_mail" />
  <g
     id="icon_msg_list_mail"
     transform="translate(-292 -295)">
    <path
       id="パス_154"
       data-name="パス 154"
       d="M8,30.519,1,23.595c-.409-.4-1,.42-1,.989V32.5a1.4,1.4,0,0,0,1,.989H16a1.4,1.4,0,0,0,1-.989V24.584c0-.57-.591-1.392-1-.989L9,30.519A.759.759,0,0,1,8,30.519Z"
       transform="translate(292 273.513)"
       fill="#119590"
       style="fill:#17acc7;fill-opacity:1" />
    <path
       id="パス_155"
       data-name="パス 155"
       d="M6.016,1l6,4a.93.93,0,0,0,1,0l6-4c.427-.312.6-1,0-1h-13C5.413,0,5.589.685,6.016,1Z"
       transform="translate(287.984 295)"
       fill="#119590"
       style="fill:#17acc7;fill-opacity:1" />
  </g>
</svg>
