<svg xmlns="http://www.w3.org/2000/svg" viewBox="0 0 16 16" width="16px" height="16px"><defs><style>.a{fill:#a2a2a2;}.b{fill:#fff;}</style></defs><g transform="translate(-879 -112)"><rect class="a" width="16" height="16" rx="3" transform="translate(879 112)"/><g transform="translate(881 114)"><rect class="b" width="2.254" height="2.254"/><rect class="b" width="2.254" height="2.254" transform="translate(3.182)"/><rect class="b" width="2.254" height="2.254" transform="translate(0 3.249)"/><rect class="b" width="2.254" height="2.254" transform="translate(3.182 3.249)"/><rect class="b" width="2.254" height="2.254" transform="translate(6.431 3.249)"/><rect class="b" width="2.254" height="2.254" transform="translate(9.613 3.249)"/><rect class="b" width="2.254" height="2.254" transform="translate(0 6.497)"/><rect class="b" width="2.254" height="2.254" transform="translate(3.182 6.497)"/><rect class="b" width="2.254" height="2.254" transform="translate(6.431 6.497)"/><rect class="b" width="2.254" height="2.254" transform="translate(9.613 6.497)"/><rect class="b" width="2.254" height="2.254" transform="translate(0 9.746)"/><rect class="b" width="2.254" height="2.254" transform="translate(3.182 9.746)"/><rect class="b" width="2.254" height="2.254" transform="translate(6.431 9.746)"/><rect class="b" width="2.254" height="2.254" transform="translate(9.613 9.746)"/></g></g></svg>