<svg xmlns="http://www.w3.org/2000/svg" width="29" height="28" viewBox="0 0 29 28">
  <g id="icon_tag_form" transform="translate(66.645 -349.395) rotate(40)">
    <path id="パス_240" data-name="パス 240" d="M13.937,5.882,9.4.9A2.816,2.816,0,0,0,5.28.889L.687,5.88A2.571,2.571,0,0,0,0,7.622V22.429A2.687,2.687,0,0,0,2.74,25.06h9.135a2.687,2.687,0,0,0,2.74-2.631V7.614A2.569,2.569,0,0,0,13.937,5.882ZM6.318,15.525H4.6V9.472H6.318ZM10.6,19.282H8.883v-9.9H10.6Z" transform="translate(180.73 319.067) rotate(-90)" fill="#8dddbb"/>
    <circle id="楕円形_143" data-name="楕円形 143" cx="1.337" cy="1.337" r="1.337" transform="translate(183.888 310.39)" fill="#fff"/>
  </g>
</svg>
