<svg id="icon_si_userid" xmlns="http://www.w3.org/2000/svg" width="13" height="19" viewBox="0 0 13 19">
  <path id="susr2" d="M23.464,8.308a4.154,4.154,0,1,1,4.154-4.154A4.158,4.158,0,0,1,23.464,8.308Zm0-7.358a3.2,3.2,0,1,0,3.2,3.2A3.208,3.208,0,0,0,23.464.949Z" transform="translate(-17.018)" fill="#fff"/>
  <path id="susr1" d="M6.327,84.873a12.027,12.027,0,0,1-4.184-.667C.371,83.52,0,82.536,0,81.831A6.486,6.486,0,0,1,6.327,75.21a6.487,6.487,0,0,1,6.327,6.621C12.654,83.932,9.477,84.873,6.327,84.873Zm0-8.645a5.467,5.467,0,0,0-5.307,5.6c0,1.133,2.331,2.022,5.307,2.022s5.307-.888,5.307-2.022A5.467,5.467,0,0,0,6.327,76.228Z" transform="translate(0 -66.284)" fill="#fff"/>
</svg>
