<?xml version="1.0" encoding="UTF-8" standalone="no"?>
<svg
   xmlns:dc="http://purl.org/dc/elements/1.1/"
   xmlns:cc="http://creativecommons.org/ns#"
   xmlns:rdf="http://www.w3.org/1999/02/22-rdf-syntax-ns#"
   xmlns:svg="http://www.w3.org/2000/svg"
   xmlns="http://www.w3.org/2000/svg"
   xmlns:sodipodi="http://sodipodi.sourceforge.net/DTD/sodipodi-0.dtd"
   xmlns:inkscape="http://www.inkscape.org/namespaces/inkscape"
   id="side_tab_icon_anken"
   width="0.68000001mm"
   height="0.66000003mm"
   viewBox="0 0 2.5700787 2.4944883"
   version="1.1"
   sodipodi:docname="icon_file_blk.svg"
   inkscape:version="0.92.4 (5da689c313, 2019-01-14)">
  <metadata
     id="metadata13472">
    <rdf:RDF>
      <cc:Work
         rdf:about="">
        <dc:format>image/svg+xml</dc:format>
        <dc:type
           rdf:resource="http://purl.org/dc/dcmitype/StillImage" />
        <dc:title></dc:title>
      </cc:Work>
    </rdf:RDF>
  </metadata>
  <defs
     id="defs13470" />
  <sodipodi:namedview
     pagecolor="#ffffff"
     bordercolor="#666666"
     borderopacity="1"
     objecttolerance="10"
     gridtolerance="10"
     guidetolerance="10"
     inkscape:pageopacity="0"
     inkscape:pageshadow="2"
     inkscape:window-width="1920"
     inkscape:window-height="1017"
     id="namedview13468"
     showgrid="false"
     fit-margin-top="-2.7755576e-17"
     units="mm"
     fit-margin-left="0"
     fit-margin-right="0"
     fit-margin-bottom="0"
     inkscape:zoom="88.833564"
     inkscape:cx="6.0108788"
     inkscape:cy="3.8564772"
     inkscape:window-x="-8"
     inkscape:window-y="-8"
     inkscape:window-maximized="1"
     inkscape:current-layer="side_tab_icon_anken" />
  <path
     id="パス_125"
     data-name="パス 125"
     d="M 1.8422985,2.167642 H 0.4347335 A 0.23254884,0.24352499 0 0 1 0.20262612,1.9242837 V 0.24983369 A 0.23254884,0.24352499 0 0 1 0.4347335,0.00642111 h 1.407565 A 0.23254884,0.24352499 0 0 1 2.0743176,0.24983369 V 1.9240904 A 0.23263713,0.24361744 0 0 1 1.8422985,2.167642 Z M 0.4347335,0.1192158 A 0.12483829,0.13073057 0 0 0 0.3101601,0.24983369 V 1.9240904 a 0.12483829,0.13073057 0 0 0 0.1245734,0.1306469 h 1.407565 A 0.12483829,0.13073057 0 0 0 1.9668719,1.9240904 V 0.24983369 A 0.12483829,0.13073057 0 0 0 1.8422985,0.1192158 Z"
     inkscape:connector-curvature="0"
     style="fill:#4d4d4d;stroke-width:0.09034687" />
  <path
     id="パス_126"
     data-name="パス 126"
     d="M 2.1701298,2.4857719 H 0.74761673 A 0.23501847,0.24352499 0 0 1 0.5130444,2.2424148 v -0.189995 h 0.10867595 v 0.189995 A 0.12616405,0.13073057 0 0 0 0.74761673,2.3730605 H 2.1701298 A 0.12616405,0.13073057 0 0 0 2.2960262,2.2424148 V 0.56799252 A 0.12616405,0.13073057 0 0 0 2.1701298,0.43734563 H 1.9763332 V 0.32455206 H 2.1700406 A 0.23501847,0.24352499 0 0 1 2.4046129,0.56799252 V 2.2422492 A 0.23510769,0.24361744 0 0 1 2.1701298,2.4857719 Z"
     inkscape:connector-curvature="0"
     style="fill:#4d4d4d;stroke-width:0.09082533" />
  <rect
     id="長方形_222"
     data-name="長方形 222"
     width="1.0132738"
     height="0.12074549"
     x="0.53026038"
     y="0.42345437"
     style="fill:#4d4d4d;stroke-width:0.09034687" />
  <rect
     id="長方形_223"
     data-name="長方形 223"
     width="1.0132738"
     height="0.12074549"
     x="0.53026038"
     y="0.65282232"
     style="fill:#4d4d4d;stroke-width:0.09034687" />
  <rect
     id="長方形_224"
     data-name="長方形 224"
     width="0.52292585"
     height="0.12074549"
     x="0.53026038"
     y="0.8822242"
     style="fill:#4d4d4d;stroke-width:0.09034687" />
  <rect
     id="長方形_225"
     data-name="長方形 225"
     width="1.0132738"
     height="0.12074549"
     x="0.78629369"
     y="1.209874"
     style="fill:#4d4d4d;stroke-width:0.09034687" />
  <rect
     id="長方形_226"
     data-name="長方形 226"
     width="0.56097776"
     height="0.12074549"
     x="1.2100729"
     y="1.439242"
     style="fill:#4d4d4d;stroke-width:0.09034687" />
  <rect
     id="長方形_227"
     data-name="長方形 227"
     width="0.56097776"
     height="0.12074549"
     x="1.2100729"
     y="1.6686438"
     style="fill:#4d4d4d;stroke-width:0.09034687" />
</svg>
