<svg id="icon_si_signin" xmlns="http://www.w3.org/2000/svg" width="19" height="18" viewBox="0 0 19 18">
  <path id="sg3" d="M32.728,17.795H22.766A2.851,2.851,0,0,1,20,14.873V13.354a.92.92,0,1,1,1.841,0v1.519a1.014,1.014,0,0,0,.925,1.082h9.962a1.013,1.013,0,0,0,.925-1.082V2.922a1.014,1.014,0,0,0-.925-1.082H22.766a1.014,1.014,0,0,0-.925,1.082V4.441a.92.92,0,0,1-1.841,0V2.922A2.851,2.851,0,0,1,22.766,0h9.962a2.851,2.851,0,0,1,2.766,2.922v11.95A2.851,2.851,0,0,1,32.728,17.795Z" transform="translate(-16.932)" fill="#fff"/>
  <path id="sg2" d="M48.376,34.746a.921.921,0,0,1-.65-1.572L51.3,29.6l-3.574-3.574a.921.921,0,0,1,1.3-1.3l4.225,4.225a.922.922,0,0,1,0,1.3l-4.225,4.225A.916.916,0,0,1,48.376,34.746Z" transform="translate(-39.418 -20.703)" fill="#fff"/>
  <path id="sg1" d="M7.17,53.841H.92A.92.92,0,0,1,.92,52H7.17a.92.92,0,1,1,0,1.841Z" transform="translate(0 -44.023)" fill="#fff"/>
</svg>
