<svg xmlns="http://www.w3.org/2000/svg" width="17" height="17" viewBox="0 0 17 17">
  <path id="icon_btn_star" d="M695.973,920a8.486,8.486,0,1,0,8.486,8.486A8.486,8.486,0,0,0,695.973,920Zm3.107,9.121a.973.973,0,0,0-.354,1.092l1.348,4.105-.042.014-3.488-2.528a.974.974,0,0,0-1.142,0l-3.488,2.528-.043-.014,1.348-4.105a.973.973,0,0,0-.354-1.092l-3.427-2.483v-.057h4.245a.973.973,0,0,0,.925-.67l1.336-4.082H696l1.336,4.082a.973.973,0,0,0,.925.67h4.245v.057Z" transform="translate(-687.486 -920)" fill="#fff"/>
</svg>
