<?xml version="1.0" encoding="UTF-8"?>
<svg width="18px" height="18px" viewBox="0 0 18 18" version="1.1" xmlns="http://www.w3.org/2000/svg" xmlns:xlink="http://www.w3.org/1999/xlink" preserveAspectRatio="none">
    <!-- Generator: Sketch 51.3 (57544) - http://www.bohemiancoding.com/sketch -->
    <title>icon_cal</title>
    <desc>Created with Sketch.</desc>
    <defs></defs>
    <g id="Page-1" stroke="none" stroke-width="1" fill="none" fill-rule="evenodd">
        <g id="dashboard" transform="translate(-70.000000, -56.000000)" fill="#E52C29" fill-rule="nonzero">
            <g id="icon_cal" transform="translate(70.000000, 56.000000)">
                <rect id="長方形_64" x="0" y="0" width="3.356" height="3.356"></rect>
                <rect id="長方形_65" x="4.738" y="0" width="3.356" height="3.356"></rect>
                <rect id="長方形_66" x="0" y="4.837" width="3.356" height="3.356"></rect>
                <rect id="長方形_67" x="4.738" y="4.837" width="3.356" height="3.356"></rect>
                <rect id="長方形_68" x="9.575" y="4.837" width="3.356" height="3.356"></rect>
                <rect id="長方形_69" x="14.313" y="4.837" width="3.356" height="3.356"></rect>
                <rect id="長方形_70" x="0" y="9.674" width="3.356" height="3.356"></rect>
                <rect id="長方形_71" x="4.738" y="9.674" width="3.356" height="3.356"></rect>
                <rect id="長方形_72" x="9.575" y="9.674" width="3.356" height="3.356"></rect>
                <rect id="長方形_73" x="14.313" y="9.674" width="3.356" height="3.356"></rect>
                <rect id="長方形_74" x="0" y="14.51" width="3.356" height="3.356"></rect>
                <rect id="長方形_75" x="4.738" y="14.51" width="3.356" height="3.356"></rect>
                <rect id="長方形_76" x="9.575" y="14.51" width="3.356" height="3.356"></rect>
                <rect id="長方形_77" x="14.313" y="14.51" width="3.356" height="3.356"></rect>
            </g>
        </g>
    </g>
</svg>