<svg xmlns="http://www.w3.org/2000/svg" xmlns:xlink="http://www.w3.org/1999/xlink" width="14" height="13" viewBox="0 0 14 13">
  <defs>
    <clipPath id="clip-path">
      <rect width="14" height="13" fill="none"/>
    </clipPath>
  </defs>
  <g id="icon_cate_folder" clip-path="url(#clip-path)">
    <g id="icon_msg_folder1" transform="translate(-0.5 -0.5)" fill="#a4dbc4" stroke-miterlimit="10">
      <path d="M 12.5 13 L 2.5 13 C 1.588790059089661 13 1 12.41121006011963 1 11.5 L 1 5.5 L 1 3.5 L 1 2.5 C 1 1.841120004653931 1.841120004653931 1 2.5 1 L 5.5 1 C 6.158880233764648 1 7 1.841120004653931 7 2.5 L 7 3.5 L 7 4 L 7.5 4 L 12.5 4 C 13.41121006011963 4 14 4.588789939880371 14 5.5 L 14 11.5 C 14 12.41121006011963 13.41121006011963 13 12.5 13 Z" stroke="none"/>
      <path d="M 2.5 1.5 C 2.116820335388184 1.5 1.5 2.116820335388184 1.5 2.5 L 1.5 3.5 L 1.5 5.5 L 1.5 11.5 C 1.5 12.1355094909668 1.864489555358887 12.5 2.5 12.5 L 12.5 12.5 C 13.1355094909668 12.5 13.5 12.1355094909668 13.5 11.5 L 13.5 5.5 C 13.5 4.864489555358887 13.1355094909668 4.5 12.5 4.5 L 7.5 4.5 L 6.5 4.5 L 6.5 3.5 L 6.5 2.5 C 6.5 2.116820335388184 5.883179664611816 1.5 5.5 1.5 L 2.5 1.5 M 2.5 0.5 L 5.5 0.5 C 6.42257022857666 0.5 7.5 1.551079750061035 7.5 2.5 L 7.5 3.5 L 12.5 3.5 C 13.67025947570801 3.5 14.5 4.296310424804688 14.5 5.5 L 14.5 11.5 C 14.5 12.7073802947998 13.67385005950928 13.5 12.5 13.5 L 2.5 13.5 C 1.326149940490723 13.5 0.5 12.7073802947998 0.5 11.5 L 0.5 5.5 L 0.5 3.5 L 0.5 2.5 C 0.5 1.551079750061035 1.57744026184082 0.5 2.5 0.5 Z" stroke="none" fill="#67d1a4"/>
    </g>
  </g>
</svg>
