<svg xmlns="http://www.w3.org/2000/svg" width="29.383" height="20.569" viewBox="0 0 29.383 20.569">
  <g id="icon_kouza_none" transform="translate(0)">
    <path id="パス_299" data-name="パス 299" d="M1335.847,1555a3.135,3.135,0,0,0-3.034,2.365l-3.732,14.927a2.64,2.64,0,0,0,2.564,3.276h19.3a2.947,2.947,0,0,0,2.858-2.226l4.584-18.344Zm12.658,13.017-1.976,1.984-3.467-3.468-3.467,3.468-1.984-1.984,3.468-3.467-3.468-3.467,1.984-1.984,3.467,3.468,3.467-3.468,1.976,1.984-3.467,3.467Z" transform="translate(-1329.003 -1555)" fill="#c9c6bb"/>
    <path id="パス_300" data-name="パス 300" d="M1363.329,1574.113H1357v-1.469h5.227a1.94,1.94,0,0,0,1.94-1.94v-15.656h1.469v16.759A2.307,2.307,0,0,1,1363.329,1574.113Z" transform="translate(-1336.433 -1555.013)" fill="#c9c6bb"/>
  </g>
</svg>
