<svg xmlns="http://www.w3.org/2000/svg" width="17" height="16.146" viewBox="0 0 17 16.146">
  <g id="icon_msg_list_mail_open" transform="translate(-292 -290.854)">
    <path id="パス_154" data-name="パス 154" d="M8,30.519,1,23.595c-.409-.4-1,.42-1,.989V32.5a1.4,1.4,0,0,0,1,.989H16a1.4,1.4,0,0,0,1-.989V24.584c0-.57-.591-1.392-1-.989L9,30.519A.759.759,0,0,1,8,30.519Z" transform="translate(292 273.513)" fill="#d6d4cd"/>
    <path id="パス_155" data-name="パス 155" d="M6.016,4l6-4a.93.93,0,0,1,1,0l6,4c.427.312.6,1,0,1h-13C5.413,5,5.589,4.315,6.016,4Z" transform="translate(287.984 291)" fill="#d6d4cd"/>
  </g>
</svg>
