<svg xmlns="http://www.w3.org/2000/svg" xmlns:xlink="http://www.w3.org/1999/xlink" width="18" height="14" viewBox="0 0 18 14">
  <defs>
    <clipPath id="clip-path">
      <rect width="18" height="14" fill="none"/>
    </clipPath>
  </defs>
  <g id="icon_cate_folder_open" clip-path="url(#clip-path)">
    <g id="パス_294" data-name="パス 294" transform="translate(-1508 -1288)" fill="none" stroke-miterlimit="10">
      <path d="M1523.88,1290.786H1519v-1.057a1.7,1.7,0,0,0-1.671-1.729h-3.658a1.7,1.7,0,0,0-1.671,1.729v9.072a2.163,2.163,0,0,0,2.125,2.2h9.75a2.163,2.163,0,0,0,2.125-2.2v-5.822A2.157,2.157,0,0,0,1523.88,1290.786Z" stroke="none"/>
      <path d="M 1513.671264648438 1288.999877929688 C 1513.301147460938 1288.999877929688 1513 1289.327026367188 1513 1289.72900390625 L 1513 1290.78564453125 L 1513 1292.642822265625 L 1513 1298.801025390625 C 1513 1299.462036132812 1513.504760742188 1299.999877929688 1514.125122070312 1299.999877929688 L 1523.875 1299.999877929688 C 1524.495361328125 1299.999877929688 1525 1299.462036132812 1525 1298.801025390625 L 1525 1292.978881835938 C 1525 1292.320922851562 1524.497680664062 1291.78564453125 1523.880249023438 1291.78564453125 L 1519.000244140625 1291.78564453125 L 1518.000244140625 1291.78564453125 L 1518.000244140625 1290.78564453125 L 1518.000244140625 1289.72900390625 C 1518.000244140625 1289.327026367188 1517.69921875 1288.999877929688 1517.3291015625 1288.999877929688 L 1513.671264648438 1288.999877929688 M 1513.671264648438 1287.999877929688 L 1517.3291015625 1287.999877929688 C 1518.251953125 1287.999877929688 1519.000244140625 1288.77392578125 1519.000244140625 1289.72900390625 L 1519.000244140625 1290.78564453125 L 1523.880249023438 1290.78564453125 C 1525.051025390625 1290.78564453125 1526 1291.767578125 1526 1292.978881835938 L 1526 1298.801025390625 C 1526 1300.015502929688 1525.048461914062 1300.999877929688 1523.875 1300.999877929688 L 1514.125122070312 1300.999877929688 C 1512.95166015625 1300.999877929688 1512 1300.015502929688 1512 1298.801025390625 L 1512 1292.642822265625 L 1512 1290.78564453125 L 1512 1289.72900390625 C 1512 1288.77392578125 1512.748168945312 1287.999877929688 1513.671264648438 1287.999877929688 Z" stroke="none" fill="#67d1a4"/>
    </g>
    <path id="パス_295" data-name="パス 295" d="M1514.381,1320.052h-11.59a1.566,1.566,0,0,1-1.4-.923l-2.215-4.657a1.7,1.7,0,0,1,1.4-2.472h11.59a1.565,1.565,0,0,1,1.4.923l2.215,4.657A1.7,1.7,0,0,1,1514.381,1320.052Z" transform="translate(-1499 -1306.052)" fill="#a4dbc4"/>
  </g>
</svg>
