<svg id="icon_chat" xmlns="http://www.w3.org/2000/svg" viewBox="0 0 23.084 18.867" width="24" height="19">
  <defs>
    <style>
      .cls-1 {
        fill: #e52c29;
      }
    </style>
  </defs>
  <path id="パス_278" data-name="パス 278" class="cls-1" d="M2.6,16.06a.589.589,0,0,1-.369-.13.569.569,0,0,1-.159-.68l1.2-2.735H3.19A3.2,3.2,0,0,1,0,9.325V3.19A3.2,3.2,0,0,1,3.19,0h9.39a3.2,3.2,0,0,1,3.19,3.19V9.325a3.2,3.2,0,0,1-3.19,3.19H8.118L2.937,15.959A.619.619,0,0,1,2.6,16.06Zm.586-14.9A2.035,2.035,0,0,0,1.157,3.19V9.325A2.035,2.035,0,0,0,3.19,11.358H4.16a.591.591,0,0,1,.485.26.573.573,0,0,1,.043.55l-.731,1.657L7.6,11.459a.583.583,0,0,1,.333-.1h4.643a2.035,2.035,0,0,0,2.033-2.033V3.19a2.035,2.035,0,0,0-2.033-2.033H3.19Z"/>
  <path id="パス_279" data-name="パス 279" class="cls-1" d="M128.618,64.5h-8.623A3,3,0,0,0,117,67.495V72.87a3,3,0,0,0,2.995,2.995h3.412l4.488,2.763a.382.382,0,0,0,.572-.463l-.883-2.3h1.042a3,3,0,0,0,2.995-2.995V67.495A3,3,0,0,0,128.618,64.5Z" transform="translate(-108.536 -59.834)"/>
</svg>
