<svg xmlns="http://www.w3.org/2000/svg" xmlns:xlink="http://www.w3.org/1999/xlink" width="14" height="15" viewBox="0 0 14 15">
  <defs>
    <clipPath id="clip-path">
      <rect width="14" height="15" fill="none"/>
    </clipPath>
  </defs>
  <g id="icon_cate" clip-path="url(#clip-path)">
    <g id="パス_286" data-name="パス 286" transform="translate(-123 -1534)" fill="#fff" stroke-miterlimit="10">
      <path d="M 134.9127655029297 1548.5 L 125.0872192382812 1548.5 C 124.2120208740234 1548.5 123.5 1547.747314453125 123.5 1546.822021484375 L 123.5 1536.177734375 C 123.5 1535.252685546875 124.2120208740234 1534.5 125.0872192382812 1534.5 L 132.3870849609375 1534.5 L 132.6112213134766 1534.5 L 132.7603454589844 1534.667358398438 L 136.3732604980469 1538.720947265625 L 136.5 1538.863159179688 L 136.5 1539.053588867188 L 136.5 1546.822021484375 C 136.5 1547.747314453125 135.7879638671875 1548.5 134.9127655029297 1548.5 Z" stroke="none"/>
      <path d="M 125.0872192382812 1535 C 124.4868316650391 1535 124 1535.52734375 124 1536.177734375 L 124 1546.822021484375 C 124 1547.47265625 124.4868316650391 1548 125.0872192382812 1548 L 134.9127807617188 1548 C 135.5131530761719 1548 136 1547.47265625 136 1546.822021484375 L 136 1539.053588867188 L 132.3870849609375 1535 L 125.0872192382812 1535 M 125.0872192382812 1534 L 132.3870849609375 1534 L 132.8353424072266 1534 L 133.1336059570312 1534.334594726562 L 136.7465209960938 1538.38818359375 L 137 1538.672607421875 L 137 1539.053588867188 L 137 1546.822021484375 C 137 1548.02294921875 136.0636596679688 1549 134.9127807617188 1549 L 125.0872192382812 1549 C 123.9363250732422 1549 123 1548.02294921875 123 1546.822021484375 L 123 1536.177734375 C 123 1534.976928710938 123.9363250732422 1534 125.0872192382812 1534 Z" stroke="none" fill="#67d1a4"/>
    </g>
    <path id="パス_287" data-name="パス 287" d="M188.184,1539.911h-2.455a1.514,1.514,0,0,1-1.545-1.481V1535" transform="translate(-174.684 -1534.411)" fill="none" stroke="#67d1a4" stroke-miterlimit="10" stroke-width="1"/>
    <rect id="長方形_1037" data-name="長方形 1037" width="6" height="2" transform="translate(4 8)" fill="#67d1a4"/>
  </g>
</svg>
