<svg xmlns="http://www.w3.org/2000/svg" width="681" heigth="171" viewBox="0 0 681.000000 171.000000" preserveAspectRatio="xMidYMid meet">
	<g fill="#000000" stroke="none">
		<path d="M129 0c-3.6 .1-9 .9-12 1.9-3 .9-7.5 3.1-10 4.8-2.5 1.7-6.3 5-8.4 7.4-2.2 2.4-5 6.7-6.3 9.4-1.2 2.8-2.7 8.2-3.2 12-.6 3.9-1.1 11.6-1.1 17.3l0 10.2-31.7 .3-31.8 .2-5.5 2.6c-3 1.4-7.3 4.3-9.4 6.5-2.2 2.1-5.1 6.4-6.5 9.4l-2.6 5.5 0 29.5 0 29.5 2.7 5.5c1.4 3 4.5 7.2 6.7 9.3 2.3 2 6 4.7 8.4 6l4.2 2.2 29.5 .3c23.9 .2 30.4 0 34-1.2 2.5-.8 6.9-3.7 9.9-6.3 2.9-2.6 6.5-7 8-9.8l2.6-5 .3-32.7 .2-32.8 13.8 0c8.2 0 15.7-.6 18.7-1.4 2.8-.7 6.8-2.2 9-3.3 2.2-1.2 6-3.9 8.5-6.1 2.5-2.2 6-6.4 7.7-9.3 2-3.2 3.9-8.5 4.8-12.9 1.3-6 1.4-8.8 .5-14-.5-3.6-2-8.7-3.3-11.5-1.3-2.7-4.3-7.2-6.7-9.8-2.5-2.7-6.5-6.1-9-7.7-2.5-1.6-7-3.5-10-4.4-3-.9-8.4-1.6-12-1.6ZM134 19.2c2.5 .5 6.2 2 8.3 3.3 2 1.4 4.8 4.4 6.2 6.8 1.3 2.3 2.7 6.2 3.1 8.7 .4 3 .1 6.1-1 9.5-.9 3-3.1 6.5-5.3 8.7-2.1 2-5.5 4.4-7.5 5.3-2.8 1.1-7.4 1.5-17.3 1.5l-13.5 0 .3-14.2 .2-14.3 2.6-4.5c1.5-2.5 4.4-5.7 6.5-7.2 2.2-1.5 5.9-3.1 8.4-3.6 2.5-.4 6.5-.4 9 0ZM58.3 82l29.7 0 0 30c0 24.7-.3 30.5-1.5 33-.9 1.8-3.2 3.8-5.7 5-3.9 1.8-6.5 2-26.3 2-12.1 0-23.6-.4-25.5-1-1.9-.5-4.8-2.3-6.5-4l-3-3.1-.2-26c-.3-21.4 0-26.4 1.2-28.9 .8-1.6 3-3.9 4.8-5l3.2-2 29.8 0Z" style="fill:#17acc7;"/>
		<path transform="translate(0.000000,171.000000) scale(0.100000,-0.100000)" d="M4084 1246 c-66 -29 -105 -115 -84 -182 42 -133 199 -155 284 -41 15
		21 21 43 21 82 0 60 -20 95 -75 133 -38 25 -98 29 -146 8z"/>
		<path transform="translate(0.000000,171.000000) scale(0.100000,-0.100000)" d="M1962 728 l3 -503 31 -55 c65 -116 146 -150 356 -150 l138 0 0 105 0
		105 -138 0 c-202 0 -182 -59 -182 523 l0 477 -105 0 -106 0 3 -502z"/>
		<path transform="translate(0.000000,171.000000) scale(0.100000,-0.100000)" d="M3100 1164 c-106 -23 -205 -77 -285 -158 -183 -184 -226 -438 -113
		-675 42 -90 168 -216 258 -259 235 -114 489 -73 671 108 236 233 238 592 4
		826 -143 143 -338 201 -535 158z m282 -231 c84 -39 141 -97 181 -181 29 -61
		32 -76 32 -162 0 -85 -3 -101 -29 -155 -38 -76 -110 -149 -184 -183 -50 -24
		-69 -27 -162 -27 -100 0 -108 1 -168 34 -122 66 -192 175 -200 312 -5 95 14
		165 65 238 104 148 301 201 465 124z"/>
		<path transform="translate(0.000000,171.000000) scale(0.100000,-0.100000)" d="M4953 1165 c-141 -31 -274 -122 -358 -245 -159 -234 -130 -536 69
		-736 369 -370 996 -111 996 411 0 160 -54 289 -170 406 -146 147 -341 207
		-537 164z m282 -231 c75 -35 149 -108 183 -182 24 -50 27 -69 27 -162 0 -100
		-1 -108 -34 -168 -39 -72 -97 -129 -173 -169 -48 -26 -62 -28 -158 -28 -96 0
		-110 3 -164 29 -79 39 -140 102 -179 184 -29 60 -32 76 -32 157 0 76 5 99 27
		147 46 100 137 180 241 214 68 23 191 12 262 -22z"/>
		<path transform="translate(0.000000,171.000000) scale(0.100000,-0.100000)" d="M5850 1070 l0 -100 305 0 c168 0 305 -2 305 -5 0 -3 -144 -176 -320
		-385 -176 -208 -320 -384 -320 -391 0 -7 16 -48 37 -91 l36 -78 454 0 453 0 0
		105 0 105 -340 2 -339 3 295 350 c163 193 309 366 325 386 l28 36 -39 82 -39
		81 -421 0 -420 0 0 -100z"/>
		<path transform="translate(0.000000,171.000000) scale(0.100000,-0.100000)" d="M4050 410 l0 -391 103 3 102 3 0 385 0 385 -102 3 -103 3 0 -391z"/>
	</g>
</svg>