<svg xmlns="http://www.w3.org/2000/svg" width="13" height="13" viewBox="0 0 13 13">
  <g id="mark_main_fax_g" transform="translate(-1600.324 -1464.554)">
    <rect id="obj4" width="9" height="7" stroke-width="0.893" fill="none" stroke="#d9d9d9" stroke-miterlimit="10" transform="translate(1602 1465)"/>
    <rect id="obj3" width="5" height="1" transform="translate(1604 1467)" fill="#d9d9d9"/>
    <path id="obj2" d="M1602,1492.5v6h12.5v-6Zm3.839,4.824a.707.707,0,1,1,.678-.706A.692.692,0,0,1,1605.839,1497.324Zm0-2.353a.707.707,0,1,1,.678-.706A.692.692,0,0,1,1605.839,1494.971Zm2.259,2.353a.707.707,0,1,1,.678-.706A.692.692,0,0,1,1608.1,1497.324Zm0-2.353a.707.707,0,1,1,.678-.706A.692.692,0,0,1,1608.1,1494.971Zm2.259,2.353a.707.707,0,1,1,.677-.706A.692.692,0,0,1,1610.356,1497.324Zm0-2.353a.707.707,0,1,1,.677-.706A.692.692,0,0,1,1610.356,1494.971Z" transform="translate(-1.676 -21)" fill="#d9d9d9"/>
    <rect id="obj1" width="4" height="1" transform="translate(1604 1469)" fill="#d9d9d9"/>
  </g>
</svg>
