<?xml version="1.0" encoding="UTF-8" standalone="no"?>
<!-- Created with Inkscape (http://www.inkscape.org/) -->

<svg
   xmlns:dc="http://purl.org/dc/elements/1.1/"
   xmlns:cc="http://creativecommons.org/ns#"
   xmlns:rdf="http://www.w3.org/1999/02/22-rdf-syntax-ns#"
   xmlns:svg="http://www.w3.org/2000/svg"
   xmlns="http://www.w3.org/2000/svg"
   xmlns:sodipodi="http://sodipodi.sourceforge.net/DTD/sodipodi-0.dtd"
   xmlns:inkscape="http://www.inkscape.org/namespaces/inkscape"
   width="210mm"
   height="297mm"
   viewBox="0 0 210 297"
   version="1.1"
   id="svg8"
   inkscape:version="0.92.4 (5da689c313, 2019-01-14)"
   sodipodi:docname="saiban.svg">
  <defs
     id="defs2" />
  <sodipodi:namedview
     id="base"
     pagecolor="#ffffff"
     bordercolor="#666666"
     borderopacity="1.0"
     inkscape:pageopacity="0.0"
     inkscape:pageshadow="2"
     inkscape:zoom="0.29667969"
     inkscape:cx="-670.76736"
     inkscape:cy="485.97014"
     inkscape:document-units="mm"
     inkscape:current-layer="layer1"
     showgrid="false"
     inkscape:window-width="1920"
     inkscape:window-height="1017"
     inkscape:window-x="-8"
     inkscape:window-y="-8"
     inkscape:window-maximized="1" />
  <metadata
     id="metadata5">
    <rdf:RDF>
      <cc:Work
         rdf:about="">
        <dc:format>image/svg+xml</dc:format>
        <dc:type
           rdf:resource="http://purl.org/dc/dcmitype/StillImage" />
        <dc:title></dc:title>
      </cc:Work>
    </rdf:RDF>
  </metadata>
  <g
     inkscape:label="レイヤー 1"
     inkscape:groupmode="layer"
     id="layer1">
    <g
       id="g865"
       transform="matrix(0.52939797,0,0,0.58154832,-24.43944,9.0014525)"
       style="fill:#999999">
	<g
   id="g855"
   style="fill:#999999">
		<g
   id="g851"
   style="fill:#999999">
			<path
   id="path815"
   d="M 362.724,258.882 312.68,308.927 307.089,303.006 210.78,201.06 c -3.675,-3.675 -3.378,-9.982 0.657,-14.017 l 29.407,-29.407 c 4.035,-4.035 10.342,-4.332 14.017,-0.657 l 101.941,96.312 z"
   style="fill:#999999"
   inkscape:connector-curvature="0" />

			<path
   id="path817"
   d="m 501.549,390.544 c 0.119,0.119 0.246,0.229 0.369,0.352 14.386,14.386 13.241,38.859 -2.56,54.66 -15.801,15.801 -40.275,16.946 -54.66,2.56 -0.123,-0.123 -0.233,-0.25 -0.352,-0.369 -0.653,-0.373 -1.263,-0.822 -1.814,-1.373 L 314.976,311.36 l -2.297,-2.433 50.044,-50.045 2.433,2.297 135.019,127.55 c 0.551,0.552 0.996,1.167 1.374,1.815 z"
   style="fill:#999999"
   inkscape:connector-curvature="0" />

			<path
   id="path819"
   d="m 270.393,136.571 -80.022,80.022 c -2.52,2.52 -6.604,2.52 -9.124,0 l -66.53,-66.53 c -2.519,-2.52 -2.519,-6.604 0,-9.124 l 80.022,-80.022 c 2.52,-2.52 6.604,-2.52 9.124,0 l 66.53,66.53 c 2.519,2.519 2.519,6.604 0,9.124 z"
   style="fill:#999999"
   inkscape:connector-curvature="0" />

			<polygon
   id="polygon821"
   points="312.679,308.927 307.089,303.006 356.802,253.292 362.724,258.882 365.157,261.18 314.976,311.36 "
   style="fill:#999999" />

			<g
   id="g835"
   style="fill:#999999">
				<g
   id="g831"
   style="fill:#999999">
					<path
   id="path823"
   d="m 143.058,244.467 c 2.44,-17.092 15.937,-30.589 33.032,-33.032 l -51.598,-51.598 c -2.443,17.095 -15.94,30.592 -33.032,33.032 z"
   style="fill:#999999"
   inkscape:connector-curvature="0" />

					<path
   id="path825"
   d="m 58.605,191.95 16.378,-16.378 c 1.59,-1.59 4.167,-1.59 5.757,0 l 74.997,74.997 c 1.59,1.59 1.59,4.167 0,5.757 l -16.378,16.378 c -6.613,6.613 -17.334,6.613 -23.946,0 L 58.605,215.896 c -6.613,-6.612 -6.613,-17.333 0,-23.946 z"
   style="fill:#999999"
   inkscape:connector-curvature="0" />

					<path
   id="path827"
   d="m 162.258,249.806 -16.378,16.378 c -1.59,1.59 -4.167,1.59 -5.757,0 L 65.126,191.187 c -1.59,-1.59 -1.59,-4.167 0,-5.757 l 16.378,-16.378 c 6.613,-6.613 17.334,-6.613 23.946,0 l 56.808,56.808 c 6.612,6.612 6.612,17.333 0,23.946 z"
   style="fill:#999999"
   inkscape:connector-curvature="0" />

					<path
   id="path829"
   d="m 151.466,260.597 v 0 c 1.024,-1.024 1.024,-2.685 0,-3.71 L 74.421,179.842 c -1.024,-1.024 -2.685,-1.024 -3.709,0 v 0 c -1.866,1.866 -1.866,4.892 0,6.758 l 73.997,73.997 c 1.865,1.866 4.891,1.866 6.757,0 z"
   style="fill:#999999"
   inkscape:connector-curvature="0" />

				</g>

				<path
   id="path833"
   d="m 108.924,141.631 0.897,-0.897 c 0.842,-0.842 2.208,-0.842 3.05,0 l 77.704,77.704 c 0.842,0.842 0.842,2.208 0,3.05 l -0.897,0.897 c -3.503,3.503 -9.183,3.503 -12.687,0 l -68.068,-68.068 c -3.503,-3.503 -3.503,-9.183 0.001,-12.686 z"
   style="fill:#999999"
   inkscape:connector-curvature="0" />

			</g>

			<g
   id="g849"
   style="fill:#999999">
				<g
   id="g845"
   style="fill:#999999">
					<path
   id="path837"
   d="m 246.515,37.815 c -2.44,17.092 -15.937,30.588 -33.032,33.031 l 51.598,51.598 c 2.443,-17.095 15.94,-30.592 33.031,-33.032 z"
   style="fill:#999999"
   inkscape:connector-curvature="0" />

					<path
   id="path839"
   d="m 245.595,4.959 -16.378,16.378 c -1.59,1.59 -1.59,4.167 0,5.757 l 74.997,74.997 c 1.59,1.59 4.167,1.59 5.757,0 l 16.378,-16.378 c 6.613,-6.613 6.613,-17.334 0,-23.946 L 269.542,4.959 c -6.613,-6.612 -17.334,-6.612 -23.947,0 z"
   style="fill:#999999"
   inkscape:connector-curvature="0" />

					<path
   id="path841"
   d="m 303.451,108.612 16.378,-16.378 c 1.59,-1.59 1.59,-4.167 0,-5.757 L 244.832,11.48 c -1.59,-1.59 -4.167,-1.59 -5.757,0 l -16.378,16.378 c -6.613,6.613 -6.613,17.334 0,23.947 l 56.808,56.808 c 6.612,6.612 17.334,6.612 23.946,-0.001 z"
   style="fill:#999999"
   inkscape:connector-curvature="0" />

					<path
   id="path843"
   d="m 314.243,97.821 v 0 c -1.024,1.024 -2.685,1.024 -3.709,0 L 233.489,20.776 c -1.024,-1.024 -1.024,-2.685 0,-3.71 v 0 c 1.866,-1.866 4.892,-1.866 6.758,0 l 73.997,73.997 c 1.865,1.866 1.865,4.892 -0.001,6.758 z"
   style="fill:#999999"
   inkscape:connector-curvature="0" />

				</g>

				<path
   id="path847"
   d="m 195.276,55.278 -0.897,0.897 c -0.842,0.842 -0.842,2.208 0,3.05 l 77.704,77.704 c 0.842,0.842 2.208,0.842 3.05,0 l 0.897,-0.897 c 3.503,-3.503 3.503,-9.183 0,-12.687 L 207.962,55.277 c -3.502,-3.502 -9.182,-3.502 -12.686,10e-4 z"
   style="fill:#999999"
   inkscape:connector-curvature="0" />

			</g>

		</g>

		<path
   id="path853"
   d="m 245.595,4.96 -6.52,6.52 -9.858,9.858 -6.52,6.52 c -6.613,6.613 -6.613,17.334 0,23.947 l 10.302,10.302 c -3.39,2.85 -7.273,5.132 -11.505,6.702 l -13.53,-13.53 c -3.503,-3.503 -9.183,-3.504 -12.687,0 l -0.897,0.897 c -0.842,0.842 -0.842,2.208 0,3.05 l 1.079,1.079 c -0.25,0.186 -0.493,0.385 -0.72,0.612 l -40.01,40.011 344.629,344.629 c 15.801,-15.801 16.946,-40.275 2.56,-54.66 -0.123,-0.123 -0.25,-0.233 -0.369,-0.352 -0.377,-0.648 -0.822,-1.263 -1.373,-1.814 l -135.02,-127.551 -2.433,-2.297 -5.921,-5.591 -101.941,-96.312 c -0.861,-0.861 -1.869,-1.495 -2.955,-1.923 l 18.486,-18.486 c 0.227,-0.227 0.426,-0.47 0.611,-0.72 l 1.079,1.079 c 0.842,0.842 2.208,0.842 3.05,0 l 0.897,-0.897 c 3.503,-3.503 3.503,-9.183 0,-12.687 l -8.912,-8.912 c 1.57,-4.232 3.852,-8.115 6.702,-11.505 l 5.684,5.684 c 6.613,6.613 17.334,6.613 23.946,0 l 6.52,-6.52 9.858,-9.858 6.52,-6.52 c 6.613,-6.613 6.613,-17.334 0,-23.946 L 269.542,4.959 c -6.613,-6.612 -17.334,-6.612 -23.947,0.001 z"
   style="opacity:0.06000001;fill:#999999"
   inkscape:connector-curvature="0" />

	</g>

	<g
   id="g863"
   style="fill:#999999">
		<path
   id="path857"
   d="M 187.324,451.629 H 51.249 c -10.165,0 -18.482,-8.317 -18.482,-18.482 V 355.78 c 0,-10.165 8.317,-18.482 18.482,-18.482 h 136.075 c 10.165,0 18.482,8.317 18.482,18.482 v 77.367 c 0,10.165 -8.317,18.482 -18.482,18.482 z"
   style="fill:#999999"
   inkscape:connector-curvature="0" />

		<path
   id="path859"
   d="M 17.146,383.877 H 221.43 c 9.429,0 17.143,7.714 17.143,17.143 v 50.597 c 0,3.62 -2.961,6.581 -6.581,6.581 H 6.581 C 2.961,458.198 0,455.237 0,451.617 v -50.595 c 0,-9.429 7.716,-17.145 17.146,-17.145 z"
   style="fill:#999999"
   inkscape:connector-curvature="0" />

		<path
   id="path861"
   d="M 221.43,383.877 H 205.806 V 355.78 c 0,-10.165 -8.317,-18.482 -18.482,-18.482 h -68.037 v 120.9 h 112.706 c 3.62,0 6.581,-2.961 6.581,-6.581 V 401.02 c -0.001,-9.428 -7.715,-17.143 -17.144,-17.143 z"
   style="opacity:0.1;fill:#999999"
   inkscape:connector-curvature="0" />

	</g>

</g>
  </g>
</svg>
